<svg xmlns="http://www.w3.org/2000/svg" enable-background="new 0 0 60 60" viewBox="0 0 60 60">
	<path fill="#3b4651" d="M44.9152451,44.2288857v5.1651955c0,0.4574547-0.3742485,0.8317528-0.8317528,0.8317528H15.9203987
				c-0.4657793,0-0.8317518-0.3742981-0.8317518-0.8317528v-5.1651955c0-0.4574509,0.3659725-0.831749,0.8317518-0.831749
				h28.1630936C44.5409966,43.3971367,44.9152451,43.7714348,44.9152451,44.2288857z" />
	<path fill="#c22b2b"
		d="M30.0019455 18.2200012c-6.8120461 0-12.35149 5.5394936-12.35149 12.3515396v11.1620903h11.5197392v-8.3008614l-3.3852348-3.3852367c-.3326702-.3243942-.3326702-.8567276 0-1.1810722.3243942-.3243942.848402-.3243942 1.1727982 0l3.0441875 3.0441875 3.0359154-3.0441875c.3327179-.3243942.856678-.3243942 1.1810722 0 .3243942.3243446.3243942.8483524 0 1.1810722l-3.3852348 3.3852367v8.3008614h11.5114632V30.5715408C42.3451614 23.7594948 36.8056679 18.2200012 30.0019455 18.2200012zM30 15.6285105c-.4597378 0-.8317509-.3724203-.8317509-.8317518V10.605917c0-.4593315.3720131-.8317509.8317509-.8317509s.8317509.3724194.8317509.8317509v4.1908417C30.8317509 15.2560902 30.4597378 15.6285105 30 15.6285105zM22.1146049 17.7411919c-.2875385 0-.5669556-.1490498-.7212849-.4158764l-2.0948105-3.6287594c-.2298698-.3980055-.0934105-.9064789.3045959-1.1363478.3955688-.2298689.9056664-.0938158 1.1363487.3045969l2.0948105 3.6287594c.2298698.3980064.0934105.9064789-.3045959 1.1363487C22.3988953 17.705452 22.2559376 17.7411919 22.1146049 17.7411919zM16.3402672 23.5143108c-.1413326 0-.2842884-.0357399-.4150629-.1112785l-3.6291656-2.0956249c-.3980064-.2298679-.5344658-.7387466-.3045969-1.1363468.2298689-.3980064.7391548-.5336533 1.1363487-.3045979l3.6291656 2.0956249c.3980064.2298679.5344658.7387486.3045959 1.1363468C16.9072227 23.3652611 16.6278076 23.5143108 16.3402672 23.5143108zM14.2283993 31.3997059h-4.1904364c-.4597378 0-.8317509-.3724213-.8317509-.8317528s.3720131-.8317509.8317509-.8317509h4.1904364c.4597368 0 .8317509.3724194.8317509.8317509S14.6881361 31.3997059 14.2283993 31.3997059zM37.8845825 17.7411919c-.1413345 0-.2842903-.0357399-.415062-.1112785-.3980064-.2298698-.5344658-.7387486-.3045998-1.1363487l2.0956268-3.6287594c.229866-.3984127.739151-.5344658 1.1363449-.3045969.3980064.2298689.5344658.7387486.3045998 1.1363478l-2.0956268 3.6287594C38.4515381 17.5921421 38.172123 17.7411919 37.8845825 17.7411919zM43.6589203 23.5143108c-.2875404 0-.5669556-.1490498-.7212868-.4158764-.229866-.3975983-.0934067-.9064789.3045998-1.1363468l3.6291656-2.0956249c.3963814-.2290554.9056664-.0934086 1.1363449.3045979.2298698.3976002.0934105.9064789-.3045959 1.1363468l-3.6291656 2.0956249C43.9432106 23.4785709 43.800251 23.5143108 43.6589203 23.5143108zM49.9620361 31.3997059h-4.191246c-.4597397 0-.8317528-.3724213-.8317528-.8317528s.3720131-.8317509.8317528-.8317509h4.191246c.4597397 0 .8317528.3724194.8317528.8317509S50.4217758 31.3997059 49.9620361 31.3997059z" />
</svg>